<svg version="1.1" id="Layer_1" xmlns="http://www.w3.org/2000/svg" xmlns:xlink="http://www.w3.org/1999/xlink" x="0px" y="0px"
	 width="100%" viewBox="0 0 512 512" enable-background="new 0 0 512 512" xml:space="preserve">
<path fill="#000000" opacity="1.000000" stroke="none" 
	d="
M380.000000,1.000000 
	C389.687561,1.000000 399.375122,1.000000 409.759644,1.257754 
	C411.357727,1.904359 412.246399,2.325657 413.161804,2.677270 
	C430.545013,9.354018 443.306610,20.770947 448.908936,38.887886 
	C454.988342,58.547607 460.673279,78.332993 466.257568,98.140465 
	C468.807526,107.185257 465.760773,111.956116 456.779968,114.502426 
	C448.797241,116.765762 440.822266,119.057266 432.857666,121.383553 
	C405.647949,129.330963 378.459045,137.349915 351.234619,145.246567 
	C317.787415,154.948151 284.311859,164.551941 250.849808,174.202362 
	C222.668045,182.329926 194.484650,190.451920 166.309494,198.602371 
	C158.415070,200.886032 150.547256,203.261749 142.667236,205.595261 
	C142.711365,205.937042 142.755493,206.278839 142.799622,206.620621 
	C145.911804,206.620621 149.023987,206.620590 152.136169,206.620621 
	C256.795288,206.622070 361.454407,206.623245 466.113525,206.626968 
	C468.113190,206.627045 470.125336,206.518799 472.110321,206.697510 
	C479.570129,207.369171 483.357819,211.329803 483.359497,218.569412 
	C483.378326,299.230255 483.499878,379.891510 483.244415,460.551544 
	C483.202118,473.905975 477.833496,485.602600 468.669342,495.635132 
	C460.737885,504.318176 450.766785,509.214752 440.000000,513.000000 
	C393.979095,513.000000 347.958221,513.000000 301.268005,512.725220 
	C296.328186,508.428925 294.603851,503.650391 297.078003,498.110779 
	C299.439240,492.823914 304.210083,492.519135 309.305939,492.572754 
	C324.800751,492.735687 340.302032,492.844452 355.794098,492.581207 
	C380.251404,492.165710 404.712494,493.543823 429.176208,491.756592 
	C447.248413,490.436218 461.651672,474.471466 461.635101,456.334656 
	C461.596771,414.344086 461.624542,372.353455 461.618561,330.362854 
	C461.617432,322.396362 461.602661,322.397583 453.561920,322.397797 
	C333.588776,322.400726 213.615631,322.403137 93.642479,322.406433 
	C87.977081,322.406586 82.308952,322.523163 76.647240,322.380829 
	C72.788521,322.283813 71.287468,323.904022 71.345276,327.751862 
	C72.008095,371.869049 70.100647,416.006714 72.375488,460.111084 
	C73.148720,475.102448 86.183670,489.452911 101.192764,491.432800 
	C106.592094,492.145020 112.035248,492.742065 117.561462,492.705017 
	C143.221237,492.532928 168.882797,492.630371 194.543732,492.631531 
	C205.374634,492.632019 216.205872,492.583405 227.036346,492.651917 
	C233.860794,492.695068 237.192261,496.462524 237.454391,503.263336 
	C237.616409,507.467163 234.762802,509.893616 233.000000,513.000000 
	C186.645767,513.000000 140.291550,513.000000 93.218674,512.758301 
	C91.587151,512.152100 90.693375,511.726990 89.758492,511.432190 
	C76.421066,507.226196 66.085121,499.260986 58.531197,487.408478 
	C51.625988,476.573883 49.733448,464.512939 49.707077,452.171326 
	C49.544342,376.007355 49.627426,299.842834 49.607346,223.678482 
	C49.606693,221.197617 49.781540,218.723831 49.044712,216.246048 
	C45.732803,205.108826 42.368675,193.982468 39.343140,182.765945 
	C35.858490,169.847351 31.360695,157.311050 31.365797,143.437149 
	C31.372929,124.039528 45.693172,101.386749 64.904320,93.878166 
	C78.704208,88.484550 93.126343,85.135246 107.286034,80.964546 
	C150.919418,68.112419 194.699707,55.759781 238.401550,43.139050 
	C279.704254,31.211166 321.004364,19.272657 362.240265,7.116992 
	C368.221619,5.353781 374.661346,4.703863 380.000000,1.000000 
M91.174515,197.532013 
	C111.716019,191.489029 132.257523,185.446030 153.152451,179.299072 
	C149.163116,173.445831 144.045486,170.156815 139.785172,165.995773 
	C125.038757,151.593002 110.306404,137.175690 95.516968,122.817200 
	C92.065308,119.466110 88.406029,116.329102 84.850060,113.085068 
	C83.699402,112.035347 82.526817,111.440163 80.815826,111.729256 
	C63.795124,114.605209 49.691475,134.855392 53.823795,151.838226 
	C57.739574,167.931122 62.812458,183.740753 67.261322,199.707047 
	C68.224991,203.165497 70.029716,203.639420 73.189728,202.619080 
	C78.861588,200.787750 84.636108,199.274368 91.174515,197.532013 
M414.971558,28.595503 
	C406.535400,22.254366 397.064148,20.859720 387.084839,23.399418 
	C376.336121,26.134926 365.707703,29.345329 355.037231,32.385105 
	C348.415039,34.271606 341.812256,36.226109 335.380829,38.097687 
	C335.295990,40.781647 337.000153,41.572216 338.119476,42.693863 
	C344.337555,48.924862 350.741852,54.960320 357.137848,61.010284 
	C371.992432,75.061272 386.477783,89.503960 401.032990,103.868782 
	C403.170654,105.978508 405.127228,106.598259 408.118835,105.666397 
	C417.925934,102.611588 427.809143,99.790688 437.714691,97.067642 
	C441.337250,96.071800 442.517395,94.493393 441.339752,90.642181 
	C437.756470,78.923698 434.495056,67.106544 431.130066,55.321602 
	C428.236053,45.186241 424.981598,35.273170 414.971558,28.595503 
M147.097992,245.694107 
	C150.234802,240.323929 153.943237,235.249649 156.124054,229.004166 
	C154.921249,228.759155 154.132675,228.459076 153.343719,228.458023 
	C127.516388,228.424362 101.688988,228.432114 75.861656,228.395416 
	C72.320686,228.390396 71.345680,230.285141 71.354538,233.489777 
	C71.411674,254.151718 71.424210,274.814087 71.341057,295.475830 
	C71.326797,299.019440 72.548538,300.688019 76.263176,300.656281 
	C88.093033,300.555267 99.924309,300.592987 111.754890,300.628479 
	C114.128197,300.635620 115.784851,299.879669 117.042511,297.687714 
	C126.882935,280.536865 136.821716,263.442474 147.097992,245.694107 
M461.614075,296.016541 
	C461.615540,275.383728 461.532440,254.750290 461.686951,234.118652 
	C461.719482,229.769272 460.179565,228.226303 455.855103,228.312195 
	C445.376434,228.520355 434.879333,228.670532 424.413116,228.254211 
	C419.505951,228.058990 416.787994,229.968079 414.519897,233.955887 
	C404.593140,251.409332 394.395752,268.709778 384.575012,286.221893 
	C382.199677,290.457550 378.861725,294.354034 378.072479,299.611603 
	C378.822357,299.966858 379.394989,300.474609 379.968933,300.476105 
	C405.924377,300.544098 431.879913,300.572327 457.835449,300.588837 
	C460.248871,300.590393 461.510712,299.316315 461.614075,296.016541 
M156.026291,150.457596 
	C162.919342,155.754456 168.490921,162.430756 174.692856,168.446732 
	C177.199051,170.877777 179.437714,171.886993 183.058228,170.764450 
	C194.937958,167.081177 206.969986,163.891205 218.871155,160.273682 
	C221.854080,159.366989 225.514069,159.673065 227.804428,156.517548 
	C223.964096,151.593964 219.080536,148.081345 214.835312,143.918121 
	C197.503494,126.920990 180.047089,110.061371 162.329819,93.464211 
	C158.891144,90.242912 155.909332,89.718323 151.662170,91.119865 
	C144.434845,93.504814 136.973648,95.179871 129.741974,97.553154 
	C123.048141,99.749931 115.979012,100.854752 108.929497,104.147148 
	C123.866524,120.607986 140.507370,134.474289 156.026291,150.457596 
M338.188416,74.363251 
	C329.208344,65.950996 321.241241,56.499081 311.616608,48.733162 
	C308.948303,46.580204 306.574463,46.222137 303.380219,47.232212 
	C295.958252,49.579166 288.357086,51.366394 280.960083,53.783131 
	C274.100281,56.024364 266.844421,57.126427 260.337158,60.329212 
	C260.598511,62.982853 262.486786,64.040451 263.862030,65.380966 
	C272.912506,74.202820 282.045288,82.940140 291.115448,91.741920 
	C302.692444,102.976379 314.292786,114.188065 325.746338,125.547447 
	C328.101868,127.883583 330.291168,128.177261 333.329712,127.264473 
	C345.079712,123.734718 356.924744,120.520592 368.666382,116.964325 
	C371.757874,116.027985 375.215881,115.865463 377.820221,113.728218 
	C377.906647,111.331375 376.119141,110.370461 374.866150,109.149551 
	C364.864563,99.404007 354.810120,89.712708 344.779724,79.996674 
	C342.869324,78.146156 341.115875,76.116814 338.188416,74.363251 
M219.691330,71.444099 
	C208.198990,75.395081 196.177643,77.703453 184.879791,82.030930 
	C185.285110,84.636665 186.964874,85.628487 188.238098,86.876770 
	C194.877930,93.386490 201.550323,99.854172 208.360321,106.196968 
	C222.708588,119.560860 236.533936,133.488205 250.486832,147.272446 
	C252.614227,149.374130 254.561600,150.092499 257.562927,149.185501 
	C269.936676,145.446091 282.411652,142.041550 294.783844,138.297256 
	C297.473969,137.483124 300.779541,137.774719 302.750305,135.084335 
	C302.399872,133.264206 301.088104,132.408844 300.028046,131.408325 
	C295.077606,126.735870 290.017456,122.177521 285.133545,117.437141 
	C271.177582,103.891197 257.352448,90.209976 243.350525,76.711983 
	C233.597916,67.310349 233.505600,67.406113 219.691330,71.444099 
M160.580383,266.988831 
	C154.385376,277.812531 148.190353,288.636200 141.789932,299.818787 
	C143.437744,300.253998 144.062912,300.562134 144.688736,300.563477 
	C160.000748,300.596283 175.312912,300.576050 190.624863,300.623108 
	C193.116058,300.630768 194.547791,299.416748 195.735046,297.356018 
	C206.839630,278.081787 218.089569,258.890594 229.067841,239.545044 
	C230.971252,236.190903 233.585815,233.074615 234.465500,229.201279 
	C232.666763,227.970383 230.953766,228.430725 229.340149,228.425537 
	C216.025238,228.382675 202.701828,228.665237 189.399261,228.255630 
	C184.219223,228.096115 181.600143,230.218246 179.289856,234.399185 
	C173.350998,245.146866 167.085251,255.713898 160.580383,266.988831 
M319.500183,300.631989 
	C327.497864,300.630585 335.521851,300.233429 343.484283,300.762482 
	C349.089417,301.134918 351.884491,298.643036 354.411133,294.158997 
	C363.791229,277.512054 373.534790,261.070099 382.942444,244.438370 
	C385.730927,239.508667 389.274292,234.897186 391.122284,229.171036 
	C389.913666,228.801666 389.300385,228.451813 388.686249,228.450317 
	C373.357941,228.412857 358.029449,228.425323 342.701111,228.392700 
	C339.953674,228.386856 338.646637,230.036530 337.399078,232.208389 
	C327.883606,248.773682 318.181580,265.232483 308.755463,281.848022 
	C305.448914,287.676575 301.363831,293.160370 298.916412,300.631775 
	C305.973022,300.631775 312.236694,300.631775 319.500183,300.631989 
M279.453979,288.016357 
	C290.675232,268.546692 301.896454,249.077042 313.018341,229.779739 
	C311.009125,227.948288 309.436188,228.426147 307.999756,228.421951 
	C294.177185,228.381516 280.353180,228.497696 266.532593,228.327469 
	C262.526611,228.278107 260.275635,229.749191 258.289459,233.282593 
	C249.014923,249.781784 239.324768,266.046906 229.992905,282.514526 
	C226.849899,288.060883 223.231781,293.408752 220.971115,299.278046 
	C222.808945,301.230255 224.759476,300.585724 226.501587,300.596558 
	C236.826569,300.660889 247.222458,299.879669 257.458038,300.838959 
	C268.029541,301.829742 275.540283,299.245453 279.453979,288.016357 
z"/>
<path fill="#000000" opacity="1.000000" stroke="none" 
	d="
M261.467957,513.000000 
	C257.938843,509.854645 255.414490,506.436615 256.086792,501.709991 
	C256.686951,497.490417 258.741699,493.907013 262.989594,492.953003 
	C267.160645,492.016296 271.627563,491.947968 274.928741,495.743896 
	C277.978302,499.250458 278.176483,503.363953 276.625977,507.357056 
	C275.581635,510.046753 274.623535,511.989990 278.714905,512.871094 
	C273.311951,513.000000 267.623932,513.000000 261.467957,513.000000 
z"/>
<path fill="#000000" opacity="1.000000" stroke="none" 
	d="
M315.045654,425.223083 
	C292.933746,438.084686 271.147186,450.777832 249.280029,463.330536 
	C245.732361,465.367004 242.206848,467.643860 237.704803,467.433167 
	C231.884979,467.160858 227.709122,463.679993 227.693176,457.932404 
	C227.596588,423.140991 227.544128,388.348755 227.715988,353.557953 
	C227.755325,345.594452 236.769531,341.906372 244.751892,346.385101 
	C254.306259,351.745850 263.743164,357.315918 273.233704,362.790497 
	C291.781219,373.489563 310.318298,384.206879 328.888702,394.866089 
	C333.144867,397.309082 336.292603,400.248566 336.418213,405.675385 
	C336.547577,411.263641 333.761414,414.565002 329.124451,417.033875 
	C324.442963,419.526428 319.930664,422.336823 315.045654,425.223083 
M260.390900,381.257080 
	C257.231201,379.238983 254.121323,377.113342 250.007599,376.184235 
	C250.007599,396.299744 250.007599,416.020508 250.007599,436.940491 
	C268.258026,426.434784 285.507294,416.505341 303.582520,406.100494 
	C288.621765,397.469147 274.838318,389.517029 260.390900,381.257080 
z"/>
</svg>